<svg width="20" height="20" viewBox="0 0 20 20" fill="none" xmlns="http://www.w3.org/2000/svg">
<path d="M6.37996 15.5562C5.22678 15.5562 4.29199 16.491 4.29199 17.6441C4.29199 18.7973 5.22682 19.7321 6.37996 19.7321C7.53313 19.7321 8.46792 18.7972 8.46792 17.6441C8.46796 16.491 7.53313 15.5562 6.37996 15.5562ZM6.37996 18.8041C5.73931 18.8041 5.21999 18.2848 5.21999 17.6442C5.21999 17.0035 5.73931 16.4842 6.37996 16.4842C7.0206 16.4842 7.53993 17.0035 7.53993 17.6442C7.53997 18.2848 7.0206 18.8041 6.37996 18.8041Z" fill="#252525"/>
<path d="M15.1959 15.5562C14.0427 15.5562 13.1079 16.491 13.1079 17.6441C13.1079 18.7973 14.0427 19.7321 15.1959 19.7321C16.349 19.7321 17.2838 18.7972 17.2838 17.6441C17.2838 16.491 16.3491 15.5562 15.1959 15.5562ZM15.1959 18.8041C14.5552 18.8041 14.0359 18.2848 14.0359 17.6442C14.0359 17.0035 14.5552 16.4842 15.1959 16.4842C15.8365 16.4842 16.3558 17.0035 16.3558 17.6442C16.3559 18.2848 15.8365 18.8041 15.1959 18.8041Z" fill="#252525"/>
<path d="M19.9054 3.37633C19.8088 3.27077 19.6766 3.2047 19.5342 3.19071L4.43117 2.98191L4.01358 1.70591C3.71939 0.85292 2.92062 0.277064 2.01838 0.267517H0.463997C0.207731 0.267517 0 0.475248 0 0.731514C0 0.98778 0.207731 1.19551 0.463997 1.19551H2.01838C2.52287 1.20666 2.96711 1.5306 3.13199 2.00752L6.07836 10.893L5.84639 11.4266C5.58763 12.0939 5.66534 12.8449 6.05518 13.445C6.44129 14.0344 7.09086 14.3982 7.79518 14.4194H16.8199C17.0762 14.4194 17.2839 14.2117 17.2839 13.9554C17.2839 13.6991 17.0762 13.4914 16.8199 13.4914H7.79514C7.3974 13.4815 7.03127 13.2722 6.82074 12.9346C6.61257 12.6011 6.5698 12.1903 6.70475 11.821L6.89037 11.4034L16.6575 10.3826C17.7303 10.2644 18.6129 9.48413 18.8615 8.4338L19.9751 3.77065C20.0253 3.63637 19.9986 3.48534 19.9054 3.37633ZM17.9567 8.22505C17.806 8.90117 17.232 9.39989 16.5415 9.45465L6.89037 10.4522L4.73278 3.90991L18.9542 4.1187L17.9567 8.22505Z" fill="#252525"/>
</svg>
